<svg xmlns="http://www.w3.org/2000/svg" width="430" height="430" style="width:100%;height:100%;transform:translate3d(0,0,0);content-visibility:visible" viewBox="0 0 430 430"><defs><clipPath id="a"><path d="M0 0h430v430H0z"/></clipPath><clipPath id="b"><path d="M0 0h430v430H0z"/></clipPath></defs><g clip-path="url(#a)"><g clip-path="url(#b)" style="display:block"><path fill="none" stroke="#121331" stroke-linecap="round" stroke-linejoin="round" stroke-width="7" d="M0 0" class="primary" style="display:block" transform="translate(215.011 171.852)"/><path fill="#F28BA8" d="M113.347 122.86a3.029 3.029 0 0 1-.289 3.035c-7.732 10.883-22.586 19.195-41.193 24.935-19 5.87-41.92 9.05-65.19 9.56-50.479 1.127-102.571-10.37-119.724-34.482a3.038 3.038 0 0 1-.299-3.047l21.943-47.071v-.01l29.08-62.38 51.2-109.84c-5.48.59-12.511 3.46-15.901.08-4.27-4.27 1.401-14.33-.049-19.77-1.5-5.61-11.35-11.53-9.85-17.15 1.45-5.43 12.839-5.66 17.109-9.92 4.26-4.27 4.491-15.66 9.921-17.11 5.61-1.5 11.539 8.35 17.149 9.85 5.44 1.45 15.5-4.22 19.77.05 4.26 4.27-1.399 14.32.051 19.76 1.5 5.61 11.339 11.54 9.839 17.15-1.45 5.44-12.829 5.66-17.099 9.93-2.87 2.87-3.91 8.94-5.93 13.06l19.18 41.14v.01l32.51 69.75 47.772 102.47z" class="secondary" style="display:block" transform="translate(215.013 215)"/><path fill="#F9C9C0" d="M38.48 7.01c0 4.84-1.16 10.43-2.84 14.85-.05.02-.1.03-.15.05-19 5.87-41.92 9.05-65.19 9.56h-.24c-5.26-6.6-8.54-15.39-8.54-24.46 0-21.25 17.23-38.48 38.48-38.48 21.26 0 38.48 17.23 38.48 38.48z" class="quaternary" style="display:block" transform="translate(251.778 343.92)"/><g opacity=".5" style="mix-blend-mode:multiply;display:block"><path fill="#F28BA8" d="M27.685 32.935a38.399 38.399 0 0 1-16.9 3.89c-21.25 0-38.47-17.22-38.47-38.47 0-15.69 9.4-29.2 22.86-35.18v.01l32.51 69.75z" class="secondary" opacity="1" style="mix-blend-mode:multiply" transform="translate(252.934 202.455)"/></g><g opacity=".5" style="mix-blend-mode:multiply;display:block"><path fill="#F28BA8" d="M59.675-89.983 7.155 30.597l-29.83 68.47v.01l-22.05 50.64c-6.014-3.837-10.909-8.193-14.371-13.059-.637-.895-.766-2.055-.302-3.05l21.943-47.071v-.01l29.08-62.38 51.2-109.84c-5.48.59-12.51 3.46-15.9.08-4.27-4.27 1.4-14.33-.05-19.77-1.5-5.61-11.35-11.53-9.85-17.15 1.45-5.43 12.84-5.66 17.11-9.92 4.26-4.27 4.49-15.66 9.92-17.11 2.97-.79 6.02 1.59 9.07 4.24-.65 1.58-1.41 2.98-2.37 4.01-4.38 4.67-16.06 4.92-17.55 10.89-1.53 6.16 8.57 12.66 10.11 18.82 1.49 5.97-4.33 17.02.05 21.7 3.48 3.72 10.69.56 16.31-.08z" class="secondary" opacity="1" style="mix-blend-mode:multiply" transform="translate(161.062 204.257)"/></g><path fill="#FFC738" d="M36.92 9.89c-1.45 5.44-12.83 5.66-17.1 9.93-4.27 4.27-4.49 15.65-9.93 17.1-5.61 1.5-11.54-8.34-17.15-9.84-1.12-.3-2.44-.3-3.86-.13-5.48.59-12.51 3.46-15.9.08-4.27-4.27 1.4-14.33-.05-19.77-1.5-5.61-11.35-11.53-9.85-17.15 1.45-5.43 12.84-5.66 17.11-9.92 4.26-4.27 4.49-15.66 9.92-17.11 5.61-1.5 11.54 8.35 17.15 9.85 5.44 1.45 15.5-4.22 19.77.05 4.26 4.27-1.4 14.32.05 19.76 1.5 5.61 11.34 11.54 9.84 17.15z" class="tertiary" style="display:block" transform="translate(215.011 91.61)"/><path fill="#EBE6EF" d="M34.31 0c0 21.25-17.22 38.48-38.47 38.48-12.21 0-23.09-5.69-30.15-14.56v-.01l29.08-62.38c.36-.01.71-.01 1.07-.01 21.25 0 38.47 17.23 38.47 38.48z" class="quinary" style="display:block" transform="translate(157.892 266.927)"/><g opacity=".5" style="mix-blend-mode:multiply;display:block"><path fill="#FFC738" d="M-4.138-5.676c-1.5 5.62 8.351 11.54 9.851 17.15 1.45 5.44-4.221 15.5.049 19.77.05.05.101.1.151.13-5.19.85-11.281 2.94-14.361-.13-4.27-4.27 1.4-14.33-.05-19.77-1.5-5.61-11.349-11.53-9.849-17.15 1.45-5.43 12.839-5.66 17.109-9.92 4.26-4.27 4.49-15.66 9.92-17.11 3.21-.86 6.53 2 9.82 4.89-1.77 4.07-2.86 9.54-5.53 12.22-4.27 4.26-15.65 4.49-17.11 9.92z" class="tertiary" opacity="1" style="mix-blend-mode:multiply" transform="translate(196.438 87.402)"/></g><g fill="none" stroke="#121331" stroke-width="7" style="display:block"><path stroke-linecap="round" stroke-linejoin="round" d="m228.9 124.832 100.17 214.91c-30.65 48.1-197.48 48.1-228.13 0l102.95-220.841" class="primary"/><path stroke-linecap="round" stroke-linejoin="round" d="M286.868 366.168a38.222 38.222 0 0 0 2.991-14.891c0-21.25-17.221-38.481-38.471-38.481-21.25 0-38.481 17.231-38.481 38.481a38.313 38.313 0 0 0 8.773 24.461m-68.997-146.999c.357-.01.713-.01 1.07-.01 21.25 0 38.471 17.231 38.471 38.481s-17.221 38.481-38.471 38.481c-12.215 0-23.097-5.687-30.149-14.565m156.978-55.397c-5.1 2.498-10.83 3.893-16.895 3.893-21.25 0-38.471-17.221-38.471-38.471 0-15.688 9.392-29.193 22.856-35.175" class="primary"/><path stroke-miterlimit="10" d="M195.189 71.139c-4.267 4.267-15.652 4.49-17.104 9.929-1.498 5.611 8.348 11.537 9.846 17.148 1.452 5.438-4.214 15.497.052 19.763 4.267 4.267 14.324-1.4 19.763.052 5.611 1.498 11.538 11.344 17.149 9.846 5.438-1.452 5.662-12.838 9.928-17.104 4.267-4.267 15.652-4.49 17.104-9.929 1.498-5.611-8.348-11.537-9.846-17.148-1.452-5.438 4.214-15.497-.052-19.763-4.267-4.267-14.324 1.4-19.763-.052-5.611-1.498-11.538-11.344-17.149-9.846-5.438 1.452-5.662 12.838-9.928 17.104z" class="primary"/><path stroke-linecap="round" stroke-linejoin="round" d="M195.189 71.139c-4.267 4.267-15.652 4.49-17.104 9.929-1.498 5.611 8.348 11.537 9.846 17.148 1.452 5.438-4.214 15.497.052 19.763 4.267 4.267 14.324-1.4 19.763.052 5.611 1.498 11.538 11.344 17.149 9.846 5.438-1.452 5.662-12.838 9.928-17.104 4.267-4.267 15.652-4.49 17.104-9.929 1.498-5.611-8.348-11.537-9.846-17.148-1.452-5.438 4.214-15.497-.052-19.763-4.267-4.267-14.324 1.4-19.763-.052-5.611-1.498-11.538-11.344-17.149-9.846-5.438 1.452-5.662 12.838-9.928 17.104z" class="primary"/></g><path fill="none" stroke="#121331" stroke-linecap="round" stroke-linejoin="round" stroke-width="7" d="M0 0" class="primary" style="display:block" transform="translate(328.058 104.689)"/><path fill="none" class="primary" style="display:none"/><path fill="none" stroke="#121331" stroke-linecap="round" stroke-linejoin="round" stroke-width="7" d="M0 0" class="primary" style="display:block" transform="translate(328.058 104.689)"/></g></g></svg>